<svg xmlns="http://www.w3.org/2000/svg" id="svg849" version="1.1" width="496.275" height="494.497"><style id="style932"/><text id="text847" stroke-width="2.357" font-family="Optician Sans" font-size="94.292" font-weight="400" style="line-height:1.25;-inkscape-font-specification:'Optician Sans Normal';font-variant-ligatures:normal;font-variant-caps:normal;font-variant-numeric:normal;font-variant-east-asian:normal" x="70.74" y="483.554"><tspan id="tspan845" letter-spacing="20" x="70.74" y="483.554" dx="0 0 0 0">FRAGO</tspan></text><path id="path864" d="M343.186 145.98c46.092 79.355 31.055 210.514-17.902 231.193-55.043 23.25-156.085-43.822-199.353-118.656-32.159-55.622-.38-116.81 60.102-154.837 51.121-32.14 127.663-8.47 157.153 42.3z" fill="#d44f4f" fill-opacity="1" stroke="#505050" stroke-width="1" stroke-linecap="butt" stroke-linejoin="miter" stroke-miterlimit="4" stroke-dasharray="none" stroke-opacity="1"/><path id="path973" d="M210.25 82.857c50.247-2.979 106.494 26.717 111.538 33.999 4.119 5.946-9.983 29.178-38.026 47.126-28.205 18.05-80.757 24.813-113.189 42.024-29.307 15.553-38.926 52.246-47.123 47.015-9.747-6.22-45.293-80.914-3.27-121.458 0 0 38.593-44.307 90.07-48.706z" fill="#2296aa" fill-opacity="1" stroke="none" stroke-width="1.072" stroke-linecap="butt" stroke-linejoin="miter" stroke-opacity="1"/><path id="path989" d="M152.779 106.674L137.41 90.402v0" fill="none" stroke="#2296aa" stroke-width="5" stroke-linecap="butt" stroke-linejoin="miter" stroke-opacity="1" stroke-miterlimit="4" stroke-dasharray="none"/><ellipse transform="rotate(-25.876)" ry="6.78" rx="11.752" cy="301.962" cx="72.565" id="path991" opacity="1" fill="#1a7281" fill-opacity=".429" fill-rule="evenodd" stroke="none" stroke-width="5" stroke-linecap="round" stroke-linejoin="round" stroke-miterlimit="4" stroke-dasharray="none" stroke-opacity="1"/><ellipse id="ellipse993" cx="197.991" cy="318.344" rx="11.752" ry="6.78" transform="rotate(-25.876)" opacity="1" fill="#1a7281" fill-opacity=".429" fill-rule="evenodd" stroke="none" stroke-width="5" stroke-linecap="round" stroke-linejoin="round" stroke-miterlimit="4" stroke-dasharray="none" stroke-opacity="1"/><ellipse transform="rotate(-25.876)" ry="6.78" rx="11.752" cy="417.584" cx="127.625" id="ellipse995" opacity="1" fill="#1a7281" fill-opacity=".429" fill-rule="evenodd" stroke="none" stroke-width="5" stroke-linecap="round" stroke-linejoin="round" stroke-miterlimit="4" stroke-dasharray="none" stroke-opacity="1"/></svg>